<?xml version="1.0" encoding="utf-8"?>
<!-- Generator: Adobe Illustrator 26.0.3, SVG Export Plug-In . SVG Version: 6.00 Build 0)  -->
<svg version="1.0" id="katman_1" xmlns="http://www.w3.org/2000/svg" xmlns:xlink="http://www.w3.org/1999/xlink" x="0px" y="0px"
	 viewBox="0 0 600 450" style="enable-background:new 0 0 600 450;" xml:space="preserve">
<style type="text/css">
	.st0{clip-path:url(#SVGID_00000160169228583191295030000012550027583101902233_);}
	.st1{fill:#29275A;}
	.st2{fill:#2465AF;}
	.st3{fill:#2D8ECD;}
</style>
<g>
	<defs>
		<rect id="SVGID_1_" x="87.9" y="212.7" width="424.5" height="25.3"/>
	</defs>
	<clipPath id="SVGID_00000039833167857920036650000004828822827742408074_">
		<use xlink:href="#SVGID_1_"  style="overflow:visible;"/>
	</clipPath>
	<g style="clip-path:url(#SVGID_00000039833167857920036650000004828822827742408074_);">
		<path class="st1" d="M296,217.9h6c2.7,0,3.3,1.5,3.3,2.9s-0.6,2.9-3.3,2.9h-6V217.9z M296,228.5h4.1c2.2,5.1,7.2,8.3,12.8,8.2
			v-4.9c-3.3-0.4-5.5-1.7-6.9-3.7c3.9-1,5.3-3.8,5.3-7.2c0-4.2-2.2-7.6-8.8-7.6h-12.1v23.4h5.6L296,228.5L296,228.5z M333.6,225
			c0,4.2-1.6,7.1-6.8,7.1h-4v-14.1h4C332,217.9,333.6,220.8,333.6,225z M317.1,213.3v23.4h9.8c8.7,0,12.3-4.5,12.3-11.7
			c0-7.2-3.6-11.7-12.3-11.7H317.1z M268.9,225c0-5,0.7-7.9,5.5-7.9s5.5,2.9,5.5,7.9c0,5-0.7,7.9-5.5,7.9S268.9,230,268.9,225z
			 M285.6,225c0-7.2-2.2-12.3-11.2-12.3s-11.2,5.1-11.2,12.3c0,7.2,2.2,12.3,11.2,12.3S285.6,232.2,285.6,225L285.6,225z
			 M246.4,217.9v4.8h11.4v4.5h-11.4v9.4h-5.6v-23.4h18.7v4.6H246.4z"/>
		<path class="st2" d="M183.6,217.9h5.9c2.8,0,3.3,1.5,3.3,2.9s-0.6,2.9-3.3,2.9h-5.9V217.9z M183.6,228.5h4.1
			c2.2,5.1,7.2,8.3,12.8,8.2v-4.9c-3.3-0.4-5.5-1.7-6.9-3.7c3.9-1,5.3-3.8,5.3-7.2c0-4.2-2.2-7.6-8.8-7.6H178v23.4h5.6
			C183.6,236.7,183.6,228.5,183.6,228.5z M204.1,220.9v-7.7h5.6v7.2c0,2.4,1.3,3.5,4,3.5c2,0.1,4-0.4,5.8-1.4v-9.3h5.6v13.4
			c0,5.8-1.8,10.6-12.3,10.6c-2.7,0-5.3-0.3-7.9-0.8v-4.6c2.6,0.6,5.2,1,7.9,1c5.6,0,6.6-2.5,6.6-5.5v-0.6c-2.1,1.1-4.4,1.6-6.7,1.6
			C206.3,228.4,204.1,225.4,204.1,220.9L204.1,220.9z M154.9,236.7h-5.7v-23.4h4.7l12.9,14.9l-0.3-14.9h5.6v23.5h-4.7l-12.8-14.9
			C154.7,221.8,154.9,236.7,154.9,236.7z M96.9,226.2c-3.1,0.4-6.1,1.1-9,2.1v-4.7c2.9-1,5.9-1.7,9-2v-8.4h5.6v7.9
			c0.7,0,1.4,0,2.1,0c3.1,0,6.2,0.2,9.3,0.8v-8.7h5.6v23.4h-5.6v-9.9c-3.2-0.8-6.5-1.1-9.8-1.1c-0.5,0-1,0-1.5,0v11h-5.6V226.2z
			 M144.5,236.7h-19.2v-23.4h19.2v4.6H131v4.6h11.9v4.6H131v5h13.6V236.7L144.5,236.7z"/>
	</g>
</g>
<path class="st3" d="M508.3,235h1c0.6,0,0.8-0.3,0.8-0.7c0-0.3-0.1-0.7-0.8-0.7h-1V235z M512.4,235.1c0,2.4-1.4,2.9-3.2,2.9
	s-3.2-0.5-3.2-2.9c0-2.4,1.5-2.9,3.2-2.9S512.4,232.6,512.4,235.1 M506.2,235.1c0,2.3,1.4,2.7,2.9,2.7s3-0.4,3-2.7s-1.4-2.7-3-2.7
	S506.2,232.8,506.2,235.1 M508.3,236.7h-0.3v-3.3h1.2c0.9,0,1.1,0.4,1.1,0.9c0,0.4-0.2,0.8-0.6,0.9l0.9,1.5h-0.3l-0.8-1.4h-1.2
	L508.3,236.7L508.3,236.7z M508.1,225.7c-3,1.1-6.2,1.7-9.4,2.1v8.9h-5.6v-8.6c-0.6,0-1.2,0-1.8,0c-3.2,0.1-6.5-0.2-9.6-0.9v9.4H476
	v-23.4h5.6v9.2c3.3,0.9,6.7,1.2,10.2,1.2c0.4,0,0.8,0,1.2,0v-10.3h5.6v9.9c3.2-0.4,6.3-1.1,9.4-2.2V225.7L508.1,225.7z M450.1,213.3
	h21.7v4.6h-8v18.8h-5.6v-18.8h-8L450.1,213.3L450.1,213.3z M439.6,232h13.5v4.7h-19.2v-23.4h5.6L439.6,232L439.6,232z M382,213.3
	h19.2v4.6h-13.5v4.6h11.9v4.5h-11.9v5h13.5v4.7H382V213.3z M370.6,222.4h-11.4v-9.1h-5.6v23.4h5.6V227h11.4v9.8h5.7v-23.4h-5.6
	L370.6,222.4L370.6,222.4z M414,228.1l3.5-9.2l3.5,9.2H414z M420.2,212.9h-5.3l-10.2,23.8h6.1l1.8-4.7h9.9l1.8,4.7h6.1L420.2,212.9z
	"/>
</svg>
